<?xml version="1.0" standalone="no"?>
<!DOCTYPE svg PUBLIC "-//W3C//DTD SVG 20010904//EN"
 "http://www.w3.org/TR/2001/REC-SVG-20010904/DTD/svg10.dtd">
<svg version="1.0" xmlns="http://www.w3.org/2000/svg"
 width="700.000000pt" height="700.000000pt" viewBox="0 0 700.000000 700.000000"
 preserveAspectRatio="xMidYMid meet">
<metadata>
Created by potrace 1.14, written by Peter Selinger 2001-2017
</metadata>
<g transform="translate(0.000000,700.000000) scale(0.100000,-0.100000)"
fill="#000000" stroke="none">
<path d="M0 3500 l0 -3500 3500 0 3500 0 0 3500 0 3500 -3500 0 -3500 0 0
-3500z m2290 2795 c0 -19 -3 -35 -7 -35 -3 0 -74 -7 -157 -16 -213 -22 -266
-52 -266 -151 1 -62 14 -110 152 -535 l133 -408 353 -2 354 -3 204 -585 c112
-322 205 -589 207 -595 6 -17 675 2006 682 2062 12 93 -32 173 -105 193 -27 7
-355 40 -401 40 -5 0 -9 16 -9 35 l0 35 590 0 590 0 0 -35 c0 -19 -3 -35 -7
-35 -32 0 -275 -33 -303 -40 -48 -13 -123 -62 -147 -96 -47 -67 -87 -180 -443
-1249 l-373 -1121 229 -657 c125 -361 233 -656 237 -654 5 1 220 610 477 1352
l467 1350 687 3 687 2 -3 -32 -3 -33 -153 -17 c-251 -27 -282 -53 -282 -236 0
-203 180 -3454 195 -3527 11 -54 21 -76 44 -97 38 -34 71 -43 242 -65 l139
-17 0 -33 0 -33 -895 0 -895 0 0 34 c0 39 -16 34 200 62 221 27 250 53 250
228 0 59 -38 862 -85 1783 -47 921 -85 1682 -85 1691 0 8 -2 13 -5 11 -2 -3
-247 -713 -544 -1577 -297 -865 -543 -1577 -546 -1582 -4 -6 -109 -10 -265
-10 l-258 0 -10 28 c-21 57 -235 659 -247 692 l-12 34 -35 -104 -35 -105 -313
0 -312 0 -132 377 c-73 208 -135 380 -139 384 -4 4 -7 -10 -7 -32 0 -22 -18
-363 -41 -759 -22 -396 -39 -774 -37 -840 5 -186 17 -197 262 -226 88 -10 162
-19 164 -19 1 0 2 -16 2 -35 l0 -35 -505 0 -505 0 0 34 c0 39 -13 35 175 57
118 13 161 27 195 61 57 56 57 57 115 1033 30 501 57 955 60 1010 l6 100 -451
1290 c-247 710 -464 1325 -481 1367 -38 95 -93 160 -155 184 -25 10 -96 27
-158 38 l-111 21 -3 38 -3 37 915 0 916 0 0 -35z"/>
</g>
</svg>
