<svg width="250" height="250" viewBox="0 0 250 250" fill="none" xmlns="http://www.w3.org/2000/svg">
<path d="M107.84 145L80.36 66.28C79.56 63.88 78.8 62.28 78.08 61.48C77.44 60.6 76.2 60 74.36 59.68L70.4 58.96V57.4H109.52V58.84L103.64 59.44C101.96 59.68 100.92 60.28 100.52 61.24C100.2 62.12 100.36 63.68 101 65.92L122.48 131.56H122.72L144.44 66.4C145.16 64.24 145.28 62.6 144.8 61.48C144.4 60.28 143.24 59.6 141.32 59.44L134 58.84V57.4H159.32V58.84L153.92 59.44C152.24 59.68 150.92 60.28 149.96 61.24C149.08 62.12 148.24 63.76 147.44 66.16L121.16 145H107.84Z" fill="#64FFDA"/>
<path d="M89.32 167V165.56L94.84 164.96C96.28 164.72 97.28 164.16 97.84 163.28C98.4 162.4 98.72 160.84 98.8 158.6L103 87.68C103.16 85.44 102.96 83.92 102.4 83.12C101.92 82.24 100.76 81.68 98.92 81.44L93.28 80.84V79.4H123.28L143.56 137.6H143.8L163.96 79.4H193.36V80.84L187.72 81.44C186.36 81.6 185.32 82.04 184.6 82.76C183.96 83.48 183.72 85.04 183.88 87.44L187.72 159.08C187.88 161.16 188.16 162.6 188.56 163.4C189.04 164.2 190.08 164.72 191.68 164.96L197.32 165.68V167H158.8V165.56L164.68 164.84C166.12 164.68 167.16 164.28 167.8 163.64C168.44 163 168.68 161.44 168.52 158.96L164.8 85.52H164.68L141.4 153.32H130.12L106 85.52H105.88L101.8 158.84C101.72 161 101.88 162.52 102.28 163.4C102.76 164.28 103.88 164.8 105.64 164.96L111.16 165.56V167H89.32Z" fill="#CCD6F6"/>
</svg>
